<svg width="198" height="64" viewBox="0 0 198 64" fill="none" xmlns="http://www.w3.org/2000/svg">
<path d="M63.6635 33.6572L37.9249 0.64749C37.4274 0.01274 36.5257 -0.18451 35.7947 0.18649L5.95197 15.3037L33.7397 50.9366L63.1011 36.0596C63.5376 35.8389 63.8524 35.4464 63.958 34.9835C64.0677 34.5206 63.9601 34.0362 63.6635 33.6572Z" fill="#F8F8F8"/>
<path d="M62.825 39.5448C62.7061 39.3266 62.4355 39.2422 62.2137 39.354L33.9429 53.6091C33.7106 53.7263 33.6212 54.0123 33.7455 54.2409C33.8644 54.4598 34.1357 54.5446 34.3581 54.4324L62.6281 40.1759C62.8602 40.0588 62.9494 39.773 62.825 39.5448Z" fill="#F8F8F8"/>
<path d="M32.9146 58.335C33.0339 58.5529 33.3044 58.6369 33.5261 58.5251L62.7435 43.7894C62.9758 43.6722 63.0652 43.3861 62.9409 43.1575C62.8219 42.9387 62.5507 42.8539 62.3283 42.9661L33.1112 57.7024C32.8786 57.8197 32.7894 58.1065 32.9146 58.335Z" fill="#F8F8F8"/>
<path d="M63.1843 45.5674L31.0877 61.7451C30.1129 61.9833 30.3363 61.2509 30.3343 60.1044C30.4256 57.0224 31.2075 54.3291 32.0765 53.4482L4.29088 17.8154C3.05013 19.2471 1.98196 23.7022 2.86532 28.5518L30.3058 63.7412C30.5048 63.9951 30.8683 64.0732 31.1588 63.9248L63.3733 47.5108C63.6596 47.3643 63.8566 47.0948 63.9033 46.7862C63.9459 46.4776 63.8362 46.1671 63.6007 45.9502L63.1843 45.5674Z" fill="#F8F8F8"/>
<path d="M20.3834 47.8501L22.6867 50.691L19.289 53.1536C17.4057 54.5185 14.7335 54.1519 13.3223 52.3508L3.2754 39.5272C1.86427 37.7261 2.23444 35.1544 4.11771 33.7894L7.52221 31.3219L9.77603 34.1986L8.27621 35.2856C7.00317 36.2083 6.74484 37.9528 7.71033 39.1851L14.8867 48.3448C15.8538 49.5792 17.6671 49.8189 18.9399 48.8964L20.3834 47.8501Z" fill="#F8F8F8" stroke="#F8F8F8"/>
<path d="M94.135 40.2976V55.4045H88V8.74406H103.374C109.773 8.74406 114.344 9.93476 117.087 12.3162C119.878 14.6976 121.273 18.5921 121.273 23.9999C121.273 29.5069 119.83 33.5999 116.943 36.2789C114.056 38.958 109.605 40.2976 103.59 40.2976H94.135ZM115.066 23.9999C115.066 20.5766 114.152 18.1456 112.323 16.7069C110.543 15.2185 107.56 14.4743 103.374 14.4743H94.135V34.7162H103.374C107.56 34.7162 110.543 33.8727 112.323 32.1859C114.152 30.4991 115.066 27.7704 115.066 23.9999ZM161.149 42.0092C161.149 46.772 159.898 50.1952 157.396 52.2789C154.894 54.3627 150.876 55.4045 145.342 55.4045H128.67V8.74406H145.27C150.274 8.74406 153.835 9.61228 155.952 11.3487C158.07 13.0852 159.128 16.0619 159.128 20.2789C159.128 23.3053 158.599 25.6371 157.54 27.2743C156.53 28.9115 154.798 30.0278 152.344 30.6231C155.279 31.02 157.468 32.1611 158.912 34.0464C160.403 35.9317 161.149 38.5859 161.149 42.0092ZM153.426 21.172C153.426 18.5921 152.825 16.8061 151.622 15.8138C150.419 14.772 148.326 14.251 145.342 14.251H134.805V28.8371H145.342C148.229 28.8371 150.299 28.2417 151.55 27.051C152.801 25.8603 153.426 23.9007 153.426 21.172ZM155.231 41.6371C155.231 38.8588 154.485 36.9239 152.993 35.8324C151.501 34.741 148.951 34.1952 145.342 34.1952H134.805V49.7487H145.342C148.951 49.7487 151.501 49.1534 152.993 47.9627C154.485 46.772 155.231 44.6634 155.231 41.6371ZM186.524 35.8324L175.553 33.1534C172.522 32.4092 170.332 31.1441 168.985 29.358C167.638 27.5224 166.964 24.9921 166.964 21.7673C166.964 17.0541 168.263 13.5813 170.862 11.3487C173.508 9.11616 177.598 7.99988 183.132 7.99988C185.441 7.99988 187.51 8.12391 189.339 8.37197C191.215 8.57042 192.948 8.8929 194.536 9.33941V15.0696C192.515 14.5735 190.59 14.2262 188.761 14.0278C186.933 13.8293 185.032 13.7301 183.06 13.7301C179.354 13.7301 176.756 14.3007 175.264 15.4417C173.773 16.5332 173.027 18.4929 173.027 21.3208C173.027 23.1069 173.364 24.4712 174.037 25.4138C174.759 26.3069 175.914 26.9518 177.502 27.3487L188.401 30.0278C192.25 30.9704 194.8 32.31 196.051 34.0464C197.35 35.7332 198 38.3627 198 41.9348C198 47.0448 196.701 50.6665 194.102 52.7999C191.552 54.9332 187.486 55.9999 181.905 55.9999C178.97 55.9999 176.131 55.8014 173.388 55.4045C170.693 55.0076 168.552 54.4867 166.964 53.8417V47.8882C169.226 48.5828 171.632 49.1286 174.182 49.5255C176.732 49.8727 179.306 50.0464 181.905 50.0464C185.514 50.0464 188.04 49.5006 189.483 48.4092C190.927 47.3177 191.648 45.2092 191.648 42.0836C191.648 40.1487 191.288 38.7596 190.566 37.9162C189.892 37.0231 188.545 36.3286 186.524 35.8324Z" fill="#F8F8F8"/>
</svg>
