<svg width="96" height="36" viewBox="0 0 96 36" fill="none" xmlns="http://www.w3.org/2000/svg">
<path d="M35.8122 18.9322L21.3341 0.364213C21.0543 0.00716626 20.5471 -0.103787 20.1359 0.104901L3.34924 8.60835L18.9799 28.6518L35.4958 20.2835C35.7413 20.1594 35.9184 19.9386 35.9778 19.6782C36.0395 19.4178 35.979 19.1454 35.8122 18.9322Z" fill="#3432AC"/>
<path d="M35.3406 22.2439C35.2737 22.1211 35.1215 22.0737 34.9967 22.1366L19.0943 30.1551C18.9637 30.221 18.9134 30.3819 18.9833 30.5105C19.0502 30.6336 19.2028 30.6813 19.3279 30.6182L35.2298 22.5989C35.3604 22.533 35.4105 22.3722 35.3406 22.2439Z" fill="#3432AC"/>
<path d="M18.5131 32.8134C18.5802 32.936 18.7324 32.9833 18.8571 32.9204L35.292 24.6315C35.4227 24.5656 35.473 24.4047 35.4031 24.2761C35.3361 24.153 35.1835 24.1053 35.0584 24.1684L18.6237 32.4576C18.4929 32.5236 18.4428 32.6849 18.5131 32.8134Z" fill="#3432AC"/>
<path d="M35.5444 25.6317L17.49 34.7317C16.9417 34.8657 17.0674 34.4537 17.0662 33.8088C17.1176 32.0752 17.5574 30.5602 18.0462 30.0647L2.41671 10.0212C1.71878 10.8265 1.11794 13.3325 1.61483 16.0605L17.0502 35.8545C17.1621 35.9973 17.3666 36.0412 17.53 35.9578L35.6507 26.7249C35.8118 26.6425 35.9226 26.4909 35.9488 26.3173C35.9728 26.1437 35.9111 25.969 35.7787 25.847L35.5444 25.6317Z" fill="#3432AC"/>
<path d="M11.4265 27.2142L12.4463 28.4721L10.7152 29.7267C9.75188 30.4249 8.38885 30.2353 7.67095 29.319L2.01953 22.1057C1.30164 21.1894 1.4878 19.877 2.45113 19.1788L4.18905 17.9192L5.18701 19.1929L4.52047 19.676C3.70825 20.2647 3.54108 21.3801 4.15995 22.17L8.19668 27.3223C8.81656 28.1135 9.97666 28.2649 10.7886 27.6765L11.4265 27.2142Z" fill="#3432AC" stroke="#3432AC"/>
<path d="M44.0689 22.1487V29.7022H41.0014V6.372H48.6882C51.888 6.372 54.1736 6.96735 55.5449 8.15805C56.9403 9.34875 57.638 11.296 57.638 13.9999C57.638 16.7534 56.9163 18.7999 55.4727 20.1394C54.0292 21.479 51.8038 22.1487 48.7964 22.1487H44.0689ZM54.5344 13.9999C54.5344 12.2883 54.0773 11.0728 53.1631 10.3534C52.2729 9.60921 50.7813 9.23712 48.6882 9.23712H44.0689V19.358H48.6882C50.7813 19.358 52.2729 18.9363 53.1631 18.0929C54.0773 17.2495 54.5344 15.8852 54.5344 13.9999ZM77.5759 23.0046C77.5759 25.386 76.9504 27.0976 75.6993 28.1394C74.4483 29.1813 72.4394 29.7022 69.6726 29.7022H61.3363V6.372H69.6365C72.1386 6.372 73.919 6.80611 74.9776 7.67433C76.0362 8.54254 76.5654 10.0309 76.5654 12.1394C76.5654 13.6526 76.3008 14.8185 75.7715 15.6371C75.2663 16.4557 74.4002 17.0139 73.1732 17.3115C74.6407 17.51 75.7354 18.0805 76.4572 19.0232C77.203 19.9658 77.5759 21.2929 77.5759 23.0046ZM73.7145 12.586C73.7145 11.296 73.4137 10.403 72.8123 9.90689C72.2108 9.38596 71.1643 9.12549 69.6726 9.12549H64.4037V16.4185H69.6726C71.1161 16.4185 72.1507 16.1208 72.7762 15.5255C73.4017 14.9301 73.7145 13.9503 73.7145 12.586ZM74.6167 22.8185C74.6167 21.4294 74.2438 20.4619 73.498 19.9162C72.7521 19.3705 71.477 19.0976 69.6726 19.0976H64.4037V26.8743H69.6726C71.477 26.8743 72.7521 26.5767 73.498 25.9813C74.2438 25.386 74.6167 24.3317 74.6167 22.8185ZM90.2634 19.9162L84.778 18.5767C83.2623 18.2046 82.1676 17.572 81.494 16.679C80.8203 15.7611 80.4835 14.496 80.4835 12.8836C80.4835 10.527 81.1331 8.79061 82.4323 7.67433C83.7555 6.55805 85.8005 5.99991 88.5673 5.99991C89.7221 5.99991 90.7566 6.06192 91.6708 6.18595C92.6091 6.28518 93.4752 6.44642 94.2692 6.66968V9.53479C93.2587 9.28673 92.2964 9.11309 91.3821 9.01386C90.4679 8.91464 89.5176 8.86503 88.5312 8.86503C86.6786 8.86503 85.3795 9.1503 84.6336 9.72084C83.8878 10.2666 83.5149 11.2464 83.5149 12.6604C83.5149 13.5534 83.6833 14.2356 84.0201 14.7069C84.381 15.1534 84.9584 15.4759 85.7524 15.6743L91.2017 17.0139C93.1264 17.4852 94.4015 18.1549 95.027 19.0232C95.6766 19.8666 96.0014 21.1813 96.0014 22.9673C96.0014 25.5224 95.3518 27.3332 94.0526 28.3999C92.7775 29.4666 90.7446 29.9999 87.9538 29.9999C86.4862 29.9999 85.0667 29.9007 83.6954 29.7022C82.3481 29.5038 81.2775 29.2433 80.4835 28.9208V25.9441C81.6143 26.2914 82.8172 26.5642 84.0923 26.7627C85.3674 26.9363 86.6546 27.0232 87.9538 27.0232C89.7582 27.0232 91.0212 26.7503 91.743 26.2046C92.4648 25.6588 92.8257 24.6046 92.8257 23.0418C92.8257 22.0743 92.6452 21.3798 92.2843 20.958C91.9475 20.5115 91.2739 20.1642 90.2634 19.9162Z" fill="#3432AC"/>
</svg>
