<svg width="30" height="26" viewBox="0 0 30 26" fill="none" xmlns="http://www.w3.org/2000/svg">
<path d="M20.1384 21.1923L13.8576 14.9115C13.3576 15.3243 12.7827 15.6474 12.1327 15.8807C11.4827 16.114 10.8102 16.2307 10.1154 16.2307C8.40618 16.2307 6.95967 15.6389 5.7758 14.4554C4.59193 13.2718 4 11.8256 4 10.1169C4 8.40819 4.59178 6.96152 5.77535 5.7769C6.95892 4.5923 8.40507 4 10.1138 4C11.8225 4 13.2692 4.59193 14.4538 5.7758C15.6384 6.95967 16.2307 8.40618 16.2307 10.1154C16.2307 10.8295 16.1109 11.5115 15.8711 12.1615C15.6314 12.8115 15.3115 13.3769 14.9115 13.8577L21.1922 20.1384L20.1384 21.1923ZM10.1154 14.7308C11.4038 14.7308 12.4952 14.2836 13.3894 13.3894C14.2836 12.4952 14.7308 11.4038 14.7308 10.1154C14.7308 8.82688 14.2836 7.73553 13.3894 6.8413C12.4952 5.94707 11.4038 5.49995 10.1154 5.49995C8.82688 5.49995 7.73553 5.94707 6.8413 6.8413C5.94708 7.73553 5.49998 8.82688 5.49998 10.1154C5.49998 11.4038 5.94708 12.4952 6.8413 13.3894C7.73553 14.2836 8.82688 14.7308 10.1154 14.7308Z" fill="#212121"/>
</svg>
